HIERARCHY
ROOT Hips
{
	OFFSET 0.000000 0.000000 0.000000 
	CHANNELS 6 Xposition Yposition Zposition Zrotation Yrotation Xrotation
	JOINT LeftUpLeg
	{
		OFFSET 1.363060 -1.794630 0.839290 
		CHANNELS 3 Zrotation Yrotation Xrotation
		JOINT LeftLeg
		{
			OFFSET 2.448110 -6.726130 0.000000 
			CHANNELS 3 Zrotation Yrotation Xrotation
			JOINT LeftFoot
			{
				OFFSET 2.562200 -7.039590 0.000000 
				CHANNELS 3 Zrotation Yrotation Xrotation
				JOINT LeftToeBase
				{
					OFFSET 0.157640 -0.433110 2.322550 
					CHANNELS 3 Zrotation Yrotation Xrotation
					End Site
					{
						OFFSET 0.000000 0.000000 0.000000 
					}
				}
			}
		}
	}
	JOINT RightUpLeg
	{
		OFFSET -1.305520 -1.794630 0.839290 
		CHANNELS 3 Zrotation Yrotation Xrotation
		JOINT RightLeg
		{
			OFFSET -2.542530 -6.985550 0.000000 
			CHANNELS 3 Zrotation Yrotation Xrotation
			JOINT RightFoot
			{
				OFFSET -2.568260 -7.056230 0.000000 
				CHANNELS 3 Zrotation Yrotation Xrotation
				JOINT RightToeBase
				{
					OFFSET -0.164730 -0.452590 2.363150 
					CHANNELS 3 Zrotation Yrotation Xrotation
					End Site
					{
						OFFSET 0.000000 0.000000 0.000000 
					}
				}
			}
		}
	}
	JOINT Spine
	{
		OFFSET 0.028270 2.035590 -0.193380 
		CHANNELS 3 Zrotation Yrotation Xrotation
		JOINT Spine1
		{
			OFFSET 0.056720 2.048850 -0.042750 
			CHANNELS 3 Zrotation Yrotation Xrotation
			JOINT Neck1
			{
				OFFSET -0.054170 1.746240 0.172020 
				CHANNELS 3 Zrotation Yrotation Xrotation
				JOINT Head
				{
					OFFSET 0.104070 1.761360 -0.123970 
					CHANNELS 3 Zrotation Yrotation Xrotation
					End Site
					{
						OFFSET 0.000000 0.000000 0.000000 
					}
				}
			}
			JOINT LeftArm
			{
				OFFSET 3.362410 1.200890 -0.311210 
				CHANNELS 3 Zrotation Yrotation Xrotation
				JOINT LeftForeArm
				{
					OFFSET 4.983000 -0.000000 -0.000000 
					CHANNELS 3 Zrotation Yrotation Xrotation
					JOINT LeftHand
					{
						OFFSET 3.483560 -0.000000 -0.000000 
						CHANNELS 3 Zrotation Yrotation Xrotation
						JOINT LeftHandIndex1
						{
							OFFSET 0.715260 -0.000000 -0.000000 
							CHANNELS 3 Zrotation Yrotation Xrotation
							End Site
							{
								OFFSET 0.000000 0.000000 0.000000 
							}
						}
					}
				}
			}
			JOINT RightArm
			{
				OFFSET -3.136600 1.374050 -0.404650 
				CHANNELS 3 Zrotation Yrotation Xrotation
				JOINT RightForeArm
				{
					OFFSET -5.241900 -0.000000 -0.000000 
					CHANNELS 3 Zrotation Yrotation Xrotation
					JOINT RightHand
					{
						OFFSET -3.444170 -0.000000 -0.000000 
						CHANNELS 3 Zrotation Yrotation Xrotation
						JOINT RightHandIndex1
						{
							OFFSET -0.622530 -0.000000 -0.000000 
							CHANNELS 3 Zrotation Yrotation Xrotation
							End Site
							{
								OFFSET 0.000000 0.000000 0.000000 
							}
						}
					}
				}
			}
		}
	}
}
MOTION
Frames: 10
Frame Time: 0.041667
-23.328432 17.920083 6.491815 -21.642257 -81.622980 28.356848 -15.331036 -6.368941 -12.129512 0.345856 7.133384 18.926486 0.577459 -1.159515 1.711003 0.000300 0.111000 0.305000 20.084306 -5.993096 -29.872693 -8.166352 -16.985904 53.346757 3.515591 -20.702059 -0.451734 -0.088700 -1.921400 5.288400 -0.634628 5.308381 -4.937818 1.914515 2.556010 -0.653649 7.828005 -1.452163 5.455012 3.344700 -0.412700 6.088300 -85.267871 -39.530110 44.955207 74.887542 -62.866374 -40.569823 -0.438365 2.624105 5.819355 -7.125000 0.000000 0.000000 77.331336 49.646322 51.680129 -77.551027 61.364027 -50.926094 -1.124988 0.206641 23.346164 7.125000 0.000000 0.000000 
-23.472795 17.924672 6.490917 -19.771577 -81.365903 26.540000 -15.523279 -6.215326 -11.600261 0.318972 7.061028 18.707428 0.621462 -1.434711 1.468949 0.000300 0.107400 0.295000 19.837898 -6.062950 -30.522921 -7.878422 -16.778387 52.361450 3.526699 -20.636820 -0.923015 -0.092000 -1.956600 5.385700 -0.638713 5.200727 -4.952440 1.937951 2.511908 -0.715668 7.952859 -1.545030 5.178992 3.393300 -0.456100 5.980500 -85.345876 -41.326747 45.346987 74.510790 -62.822344 -40.327739 -0.431971 2.629503 5.560596 -7.125000 0.000000 0.000000 76.871837 50.907998 51.061192 -76.793859 61.276043 -50.305260 -1.121135 0.201615 23.195510 7.125000 0.000000 0.000000 
-23.617556 17.928463 6.490019 -18.075993 -81.110808 24.905119 -15.703858 -6.057687 -11.076193 0.292802 6.987732 18.487148 0.663533 -1.698724 1.229353 0.000200 0.100600 0.276500 19.597291 -6.116034 -31.127515 -7.559527 -16.540797 51.255335 3.530381 -20.548577 -1.372948 -0.093200 -1.968700 5.419100 -0.641785 5.092269 -4.968951 1.960224 2.466897 -0.775264 8.072161 -1.632294 4.904523 3.439800 -0.497300 5.874000 -85.448099 -43.112214 45.721792 74.063829 -62.773744 -40.038152 -0.424365 2.635632 5.285714 -7.125000 0.000000 0.000000 76.379649 52.182955 50.409393 -75.968069 61.177518 -49.626437 -1.116865 0.196564 23.050845 7.125000 0.000000 0.000000 
-23.762617 17.931357 6.488922 -16.539311 -80.860833 23.436149 -15.871212 -5.895521 -10.560306 0.267790 6.914908 18.269740 0.704022 -1.952968 0.992437 0.000200 0.091700 0.252000 19.362295 -6.147467 -31.686914 -7.213485 -16.272905 50.036475 3.526050 -20.435474 -1.791442 -0.093000 -1.967000 5.414500 -0.644047 4.983092 -4.988031 1.981183 2.421049 -0.834340 8.188149 -1.713403 4.632131 3.485500 -0.535900 5.769200 -85.575130 -44.881565 46.081496 73.549712 -62.719486 -39.703396 -0.415416 2.642599 4.992874 -7.125000 0.000000 0.000000 75.856872 53.467879 49.727233 -75.077497 61.067954 -48.893045 -1.112312 0.191270 22.913148 7.125000 0.000000 0.000000 
-23.908276 17.933552 6.487725 -15.118104 -80.618791 22.087421 -16.032182 -5.730524 -10.048523 0.243961 6.842660 18.054970 0.743064 -2.198048 0.758298 0.000200 0.080300 0.220700 19.127724 -6.162119 -32.198350 -6.844642 -15.974476 48.712761 3.516624 -20.312368 -2.165966 -0.091100 -1.947000 5.359100 -0.645685 4.872737 -5.008898 2.002030 2.374203 -0.890371 8.300114 -1.788154 4.362404 3.530000 -0.571700 5.666100 -85.729847 -46.632142 46.427013 72.969318 -62.658589 -39.324653 -0.405171 2.650529 4.680493 -7.125000 0.000000 0.000000 75.303016 54.763200 49.016032 -74.119389 60.945813 -48.102840 -1.107691 0.186027 22.788662 7.125000 0.000000 0.000000 
-24.054534 17.934849 6.486627 -13.798819 -80.386541 20.846432 -16.186466 -5.563864 -9.543477 0.221656 6.772342 17.846891 0.780622 -2.433407 0.526496 0.000100 0.064900 0.178200 18.892858 -6.156948 -32.664147 -6.458113 -15.646568 47.296809 3.504154 -20.186821 -2.498562 -0.087800 -1.910900 5.259400 -0.647178 4.761905 -5.031794 2.022181 2.326397 -0.942428 8.407974 -1.857204 4.096919 3.573000 -0.605000 5.565800 -85.913981 -48.360253 46.762615 72.325194 -62.589707 -38.903318 -0.393608 2.659484 4.346374 -7.125000 0.000000 0.000000 74.716780 56.066822 48.275186 -73.102504 60.811148 -47.262706 -1.103033 0.180489 22.679104 7.125000 0.000000 0.000000 
-24.201590 17.935148 6.485430 -12.565306 -80.166505 19.696569 -16.335311 -5.396136 -9.045536 0.200914 6.704675 17.647198 0.816569 -2.659224 0.297488 0.000000 0.045000 0.123700 18.657175 -6.132011 -33.085564 -6.059858 -15.290779 45.804370 3.489557 -20.060960 -2.792391 -0.082900 -1.857200 5.111100 -0.648590 4.650300 -5.056358 2.042008 2.277578 -0.988326 8.510528 -1.918786 3.835043 3.614000 -0.634900 5.467500 -86.130320 -50.062316 47.089125 71.621319 -62.511839 -38.442503 -0.380963 2.669479 3.989805 -7.125000 0.000000 0.000000 74.102396 57.377875 47.509272 -72.030883 60.663315 -46.376330 -1.098493 0.174727 22.587687 7.125000 0.000000 0.000000 
-24.349344 17.934549 6.484233 -11.404607 -79.959235 18.623419 -16.479591 -5.228661 -8.553079 0.181991 6.640374 17.458192 0.851156 -2.875959 0.070937 0.000000 0.019500 0.053500 18.420496 -6.088277 -33.464556 -5.655373 -14.909726 44.250988 3.473435 -19.936732 -3.048677 -0.076800 -1.788000 4.920200 -0.650147 4.538218 -5.082763 2.061232 2.227677 -1.028320 8.610313 -1.974121 3.578732 3.654100 -0.662000 5.372200 -86.382439 -51.734443 47.412103 70.860020 -62.423394 -37.943421 -0.367135 2.680594 3.609575 -7.125000 0.000000 0.000000 73.458264 58.694982 46.718297 -70.909510 60.501723 -45.447509 -1.094181 0.168633 22.515615 7.125000 0.000000 0.000000 
-24.497897 17.932953 6.483036 -10.303949 -79.766233 17.614527 -16.620351 -5.062114 -8.068962 0.165202 6.580827 17.283242 0.884273 -3.083305 -0.152546 0.000000 -0.012000 -0.033000 18.182281 -6.024048 -33.803804 -5.250131 -14.506034 42.652360 3.456916 -19.817802 -3.270223 -0.070000 -1.706600 4.695400 -0.651941 4.425613 -5.110890 2.080214 2.176678 -1.061293 8.704466 -2.022793 3.328322 3.692000 -0.685900 5.280400 -86.673466 -53.375293 47.733616 70.043544 -62.323166 -37.407845 -0.352012 2.692896 3.205705 -7.125000 0.000000 0.000000 72.786177 60.020075 45.906349 -69.746000 60.326072 -44.482816 -1.090203 0.162436 22.464516 7.125000 0.000000 0.000000 
-24.647347 17.930359 6.481838 -9.255149 -79.587658 16.660611 -16.757415 -4.897569 -7.593441 0.150785 6.527422 17.126334 0.916222 -3.282517 -0.373140 0.000100 -0.049100 -0.135000 17.942907 -5.939383 -34.104884 -4.849177 -14.082943 41.024185 3.440721 -19.706413 -3.460334 -0.063100 -1.620500 4.457900 -0.653912 4.311988 -5.140378 2.099097 2.124210 -1.085220 8.794029 -2.064590 3.084313 3.728100 -0.706600 5.192300 -87.006341 -54.980083 48.057034 69.179849 -62.210341 -36.841002 -0.335905 2.706391 2.777374 -7.125000 0.000000 0.000000 72.085263 61.352488 45.074135 -68.550067 60.136458 -43.490030 -1.086742 0.155607 22.433412 7.125000 0.000000 0.000000 
